Genre:Action Comedy 
Language:Mandarin
Subtitles:English
IMDb:

Encoder: Tony2
..........................................
General
Complete name : Kung Fu Hiphop 2 (2010).Pre_DvdRip.Xvid.FEEL-FREE
Format : AVI
Format/Info : Audio Video Interleave
File size : 825 MiB
Duration : 1h 26mn
Overall bit rate : 1 338 Kbps
...........................................
Video
Format : xvid
Codec ID : xvid
Duration : 1h 26mn
Bit rate : 1 197 Kbps
Width : 720 pixels
Height : 304 pixels
Display aspect ratio : 2.35:1
Frame rate : 25.000 fps
Resolution : 24 bits
Bits/(Pixel*Frame) : 0.219
Stream size : 738 MiB (89%)
...........................................
Audio
ID : 1
Format : MPEG Audio
Format version : Version 1
Format profile : Layer 3
Format settings, Mode : Joint stereo / MS Stereo
Codec ID : 55
Codec ID/Hint : MP3
Duration : 1h 26mn
Bit rate mode : Constant
Bit rate : 128 Kbps
Channel(s) : 2 channels
Sampling rate : 48.0 KHz
Resolution : 16 bits
Stream size : 79.0 MiB (10%)
Alignment : Aligned on interleaves
Interleave, duration : 24 ms (0.60 video frame)
............................................
Plot:
This movie is a continuation of 'Kung Fu Hip Hop' style and elements, it will be directed by Liu Bao Xian and Kang Ting with photographer Renâ